<svg width="541" height="660" viewBox="0 0 541 660" fill="none" xmlns="http://www.w3.org/2000/svg">
<g id="Frame 1">
<rect width="541" height="660" fill="white"/>
<g id="city">
<g id="Mobile">
<path id="Vector" opacity="0.4" d="M139.167 623.645L7.52575 529.408C-3.62564 521.424 -2.23172 507.485 10.6938 498.271L328.645 270.715C341.528 261.553 361.001 260.506 372.152 268.477L503.793 362.714C514.945 370.684 513.54 384.624 500.625 393.838L182.685 621.368C169.791 630.582 150.319 631.59 139.167 623.645Z" fill="#D6D8E5"/>
<path id="Vector 2" d="M155.841 611.198L24.2 516.961C13.0487 508.99 14.4532 495.051 27.368 485.837L345.309 258.32C358.192 249.158 377.665 248.098 388.816 256.082L520.457 350.319C531.609 358.303 530.215 372.242 517.289 381.456L199.349 608.973C186.465 618.187 166.993 619.182 155.841 611.198Z" fill="#B1B4C4"/>
<path id="Vector 3" d="M16.6707 503.284V488.258L30.8845 494.907L16.6707 503.284Z" fill="#B1B4C4"/>
<path id="Vector 4" d="M527.997 363.29V348.84L516.687 357.871L527.997 363.29Z" fill="#B1B4C4"/>
<path id="Vector 5" d="M155.841 598.489L24.2 504.252C13.0487 496.268 14.4532 482.329 27.368 473.115L345.309 245.598C358.192 236.436 377.665 235.389 388.816 243.36L520.457 337.597C531.609 345.568 530.215 359.507 517.289 368.721L199.349 596.251C186.465 605.465 166.993 606.473 155.841 598.489Z" fill="#616E84"/>
<path id="Vector 6" d="M40.0844 523.58C40.7612 523.096 40.7638 521.532 40.0902 520.085C39.4166 518.639 38.3218 517.859 37.6451 518.343C36.9683 518.828 36.9656 520.393 37.6392 521.839C38.3129 523.285 39.4076 524.064 40.0844 523.58Z" fill="#757B89"/>
<path id="Vector 7" d="M46.4217 528.116C47.0985 527.631 47.101 526.067 46.4274 524.621C45.7538 523.174 44.6591 522.394 43.9823 522.878C43.3054 523.364 43.3029 524.928 43.9765 526.374C44.6501 527.821 45.7448 528.601 46.4217 528.116Z" fill="#757B89"/>
<path id="Vector 8" d="M52.7642 532.653C53.441 532.169 53.4435 530.603 52.77 529.157C52.0964 527.712 51.0016 526.932 50.3248 527.416C49.648 527.901 49.6454 529.466 50.319 530.911C50.9926 532.357 52.0874 533.137 52.7642 532.653Z" fill="#757B89"/>
<path id="Vector 9" d="M59.1013 537.188C59.7782 536.704 59.7807 535.138 59.1071 533.693C58.4335 532.247 57.3388 531.467 56.6619 531.951C55.9852 532.436 55.9826 534.001 56.6562 535.447C57.3299 536.892 58.4245 537.672 59.1013 537.188Z" fill="#757B89"/>
<path id="Vector 10" d="M113.504 576.121C114.181 575.637 114.183 574.071 113.51 572.625C112.836 571.179 111.741 570.4 111.065 570.884C110.388 571.369 110.385 572.933 111.059 574.379C111.732 575.825 112.827 576.605 113.504 576.121Z" fill="#757B89"/>
<path id="Vector 11" d="M119.841 580.656C120.518 580.172 120.52 578.607 119.847 577.16C119.174 575.714 118.079 574.935 117.402 575.419C116.725 575.904 116.723 577.468 117.396 578.914C118.069 580.36 119.164 581.14 119.841 580.656Z" fill="#757B89"/>
<path id="Vector 12" d="M126.173 585.193C126.85 584.708 126.852 583.144 126.179 581.698C125.506 580.252 124.411 579.472 123.734 579.956C123.057 580.44 123.055 582.006 123.728 583.452C124.401 584.898 125.496 585.677 126.173 585.193Z" fill="#757B89"/>
<path id="Vector 13" d="M132.51 589.728C133.187 589.244 133.19 587.679 132.516 586.233C131.843 584.787 130.748 584.007 130.071 584.491C129.394 584.975 129.392 586.541 130.065 587.987C130.739 589.433 131.833 590.212 132.51 589.728Z" fill="#757B89"/>
<path id="Vector 14" d="M93.7904 563.556L76.3875 551.096C75.7846 550.563 75.2904 549.863 74.9439 549.051C74.5975 548.241 74.4083 547.341 74.3917 546.423C74.3917 544.604 75.2787 543.806 76.3875 544.552L93.7904 557.012C94.399 557.55 94.8967 558.258 95.2434 559.079C95.5901 559.899 95.7761 560.81 95.7862 561.737C95.7862 563.504 94.8992 564.341 93.7904 563.556Z" fill="#757B89"/>
<path id="Vector 15" d="M488.154 399.06L471.966 410.644C470.91 411.377 470.107 410.644 470.107 408.903C470.118 408.04 470.291 407.193 470.614 406.429C470.936 405.666 471.4 405.006 471.966 404.505L488.154 392.922C489.21 392.189 490.002 392.922 490.002 394.663C489.993 395.524 489.82 396.369 489.499 397.134C489.178 397.897 488.718 398.556 488.154 399.06Z" fill="#757B89"/>
<path id="Vector 16" d="M463.359 416.848L447.171 428.431C446.115 429.164 445.312 428.431 445.312 426.69C445.323 425.83 445.497 424.985 445.82 424.223C446.143 423.462 446.606 422.805 447.171 422.305L463.359 410.722C464.415 409.989 465.207 410.722 465.207 412.463C465.198 413.321 465.026 414.166 464.705 414.927C464.384 415.689 463.922 416.348 463.359 416.848Z" fill="#757B89"/>
<path id="Vector 17" d="M155.841 596.159L24.2 501.923C13.0487 493.952 14.4532 480.012 27.368 470.798L345.309 243.294C358.192 234.133 377.665 233.072 388.816 241.056L520.457 335.293C531.609 343.277 530.215 357.216 517.289 366.431L199.349 593.948C186.465 603.162 166.993 604.157 155.841 596.159Z" fill="#20232D"/>
<path id="Vector 18" d="M500.002 342.937L448.607 306.158L448.48 306.25C442.408 310.595 432.566 310.595 426.494 306.25C420.422 301.905 420.422 294.863 426.494 290.544L426.621 290.452L375.225 253.674C367.422 248.085 354.76 248.085 346.956 253.674L37.2416 475.274C29.4377 480.863 29.4377 489.92 37.2416 495.496L162.008 584.786C169.823 590.374 182.474 590.374 190.278 584.786L500.002 363.185C507.806 357.583 507.806 348.526 500.002 342.937Z" fill="#F2F5F9"/>
<path id="Vector 19" d="M440.444 301.093C443.704 301.093 446.347 299.201 446.347 296.866C446.347 294.531 443.704 292.638 440.444 292.638C437.183 292.638 434.541 294.531 434.541 296.866C434.541 299.201 437.183 301.093 440.444 301.093Z" fill="#2B303F"/>
<path id="Vector 20" opacity="0.1" d="M438.702 298.122C438.486 298.04 438.298 297.873 438.164 297.648C438.031 297.423 437.958 297.151 437.958 296.872C437.958 296.592 438.031 296.321 438.164 296.096C438.298 295.871 438.486 295.705 438.702 295.622C439.242 295.279 439.841 295.101 440.449 295.101C441.057 295.101 441.655 295.279 442.197 295.622C442.411 295.705 442.6 295.871 442.733 296.096C442.868 296.321 442.939 296.592 442.939 296.872C442.939 297.151 442.868 297.423 442.733 297.648C442.6 297.873 442.411 298.04 442.197 298.122C441.655 298.464 441.057 298.643 440.449 298.643C439.841 298.643 439.242 298.464 438.702 298.122Z" fill="white"/>
</g>
<path id="Vector 21" d="M297.932 454.232L190.458 521.271L146.875 494.284L254.359 427.245L297.932 454.232Z" fill="#B9CC00"/>
<path id="Vector 22" d="M407.857 289.352L222.46 405.261L171.701 375.446L357.087 259.537L407.857 289.352Z" fill="#B9CC00"/>
<path id="Vector 23" d="M224.104 359.374H219.058V378.408C219.077 378.646 219.156 378.875 219.285 379.069C219.413 379.264 219.589 379.42 219.793 379.517C220.345 379.818 220.956 379.975 221.576 379.975C222.196 379.975 222.807 379.818 223.36 379.517C223.566 379.422 223.743 379.268 223.875 379.072C224.006 378.877 224.085 378.648 224.104 378.408V359.374Z" fill="#443D31"/>
<path id="Vector 24" d="M221.705 359.663C229.009 359.663 234.93 353.312 234.93 345.476C234.93 337.641 229.009 331.29 221.705 331.29C214.401 331.29 208.481 337.641 208.481 345.476C208.481 353.312 214.401 359.663 221.705 359.663Z" fill="#C6E800"/>
<path id="Vector 25" d="M255.021 340.341H249.975V359.363C249.994 359.603 250.073 359.832 250.204 360.028C250.335 360.223 250.513 360.377 250.72 360.472C251.272 360.773 251.883 360.931 252.503 360.931C253.123 360.931 253.734 360.773 254.287 360.472C254.489 360.375 254.665 360.22 254.795 360.024C254.924 359.83 255.001 359.602 255.021 359.363V340.341Z" fill="#443D31"/>
<path id="Vector 26" d="M252.622 340.629C259.925 340.629 265.847 334.278 265.847 326.443C265.847 318.608 259.925 312.256 252.622 312.256C245.318 312.256 239.397 318.608 239.397 326.443C239.397 334.278 245.318 340.629 252.622 340.629Z" fill="#C6E800"/>
<path id="Vector 27" d="M319.367 304.104H314.321V323.137C314.339 323.377 314.419 323.607 314.549 323.802C314.681 323.997 314.859 324.151 315.065 324.247C315.617 324.547 316.229 324.705 316.849 324.705C317.468 324.705 318.079 324.547 318.633 324.247C318.835 324.149 319.011 323.994 319.14 323.798C319.27 323.604 319.347 323.376 319.367 323.137V304.104Z" fill="#443D31"/>
<path id="Vector 28" d="M316.968 304.392C324.271 304.392 330.193 298.041 330.193 290.206C330.193 282.371 324.271 276.019 316.968 276.019C309.664 276.019 303.743 282.371 303.743 290.206C303.743 298.041 309.664 304.392 316.968 304.392Z" fill="#C6E800"/>
<path id="Vector 29" d="M415.032 311.447L132.874 486.198L122.131 479.543L404.289 304.792L415.032 311.447Z" fill="#FF6161"/>
<path id="Vector 30" d="M436.271 372.396L391.499 344.667V229.312L436.271 257.041V372.396Z" fill="#E4E7EF"/>
<path id="Vector 31" d="M436.271 257.041L391.499 229.312L436.271 201.582L481.043 229.312L436.271 257.041Z" fill="#EDF1F9"/>
<path id="Vector 32" d="M428.216 280.889L399.564 263.142V247.613L428.216 265.36V280.889Z" fill="#6675FF"/>
<path id="Vector 33" d="M481.043 344.667L436.271 372.407V257.052L481.043 229.323V344.667Z" fill="#DADCE5"/>
<path id="Vector 34" d="M455.079 274.245L444.326 280.9V265.371L455.079 258.716V274.245Z" fill="#6675FF"/>
<path id="Vector 35" d="M472.988 263.153L462.235 269.808V254.279L472.988 247.624V263.153Z" fill="#6675FF"/>
<path id="Vector 36" d="M455.079 297.537L444.326 304.193V288.664L455.079 282.009V297.537Z" fill="#6675FF"/>
<path id="Vector 37" d="M472.988 286.446L462.235 293.101V277.572L472.988 270.917V286.446Z" fill="#6675FF"/>
<path id="Vector 38" d="M455.079 320.83L444.326 327.485V311.957L455.079 305.302V320.83Z" fill="#6675FF"/>
<path id="Vector 39" d="M472.988 309.738L462.235 316.394V300.865L472.988 294.21V309.738Z" fill="#6675FF"/>
<path id="Vector 40" d="M455.079 345.232L444.326 351.887V336.359L455.079 329.704V345.232Z" fill="#6675FF"/>
<path id="Vector 41" d="M472.988 334.14L462.235 340.796V325.267L472.988 318.612V334.14Z" fill="#6675FF"/>
<path id="Vector 42" d="M428.216 304.181L399.564 286.435V270.906L428.216 288.653V304.181Z" fill="#6675FF"/>
<path id="Vector 43" d="M428.216 327.474L399.564 309.727V294.199L428.216 311.946V327.474Z" fill="#6675FF"/>
<path id="Vector 44" d="M428.216 351.876L399.564 334.129V318.601L428.216 336.348V351.876Z" fill="#6675FF"/>
<path id="Vector 45" d="M436.271 244.851L410.442 228.857V223.899L436.271 239.904V244.851Z" fill="#E4E7EF"/>
<path id="Vector 46" d="M436.271 244.851L462.111 228.857V223.899L436.271 239.904V244.851Z" fill="#DADCE5"/>
<path id="Vector 47" d="M168.672 438.625L123.899 410.896V229.001L168.672 256.731V438.625Z" fill="#E4E7EF"/>
<path id="Vector 48" d="M168.672 256.731L123.899 229.001L168.672 201.272L213.444 229.001L168.672 256.731Z" fill="#EDF1F9"/>
<path id="Vector 49" d="M160.606 280.578L131.954 262.831V247.303L160.606 265.05V280.578Z" fill="#84A6F4"/>
<path id="Vector 50" d="M213.444 410.907L168.672 438.637V256.731L213.444 229.001V410.907Z" fill="#DADCE5"/>
<path id="Vector 51" d="M187.47 273.923L176.726 280.578V265.05L187.47 258.394V273.923Z" fill="#84A6F4"/>
<path id="Vector 52" d="M205.379 262.831L194.635 269.486V253.958L205.379 247.303V262.831Z" fill="#84A6F4"/>
<path id="Vector 53" d="M187.47 297.216L176.726 303.871V288.342L187.47 281.687V297.216Z" fill="#84A6F4"/>
<path id="Vector 54" d="M205.379 286.124L194.635 292.779V277.251L205.379 270.595V286.124Z" fill="#84A6F4"/>
<path id="Vector 55" d="M187.47 320.509L176.726 327.164V311.635L187.47 304.98V320.509Z" fill="#84A6F4"/>
<path id="Vector 56" d="M205.379 309.417L194.635 316.072V300.543L205.379 293.888V309.417Z" fill="#84A6F4"/>
<path id="Vector 57" d="M187.47 344.911L176.726 351.566V336.037L187.47 329.382V344.911Z" fill="#84A6F4"/>
<path id="Vector 58" d="M205.379 333.819L194.635 340.474V324.945L205.379 318.29V333.819Z" fill="#84A6F4"/>
<path id="Vector 59" d="M187.47 370.965L176.726 377.62V362.103L187.47 355.448V370.965Z" fill="#84A6F4"/>
<path id="Vector 60" d="M205.379 359.874L194.635 366.529V351.011L205.379 344.356V359.874Z" fill="#84A6F4"/>
<path id="Vector 61" d="M187.47 397.608L176.726 404.263V388.734L187.47 382.079V397.608Z" fill="#84A6F4"/>
<path id="Vector 62" d="M205.379 386.516L194.635 393.171V377.643L205.379 370.987V386.516Z" fill="#84A6F4"/>
<path id="Vector 63" d="M160.606 303.871L131.954 286.124V270.595L160.606 288.342V303.871Z" fill="#84A6F4"/>
<path id="Vector 64" d="M160.606 327.164L131.954 309.417V293.888L160.606 311.635V327.164Z" fill="#84A6F4"/>
<path id="Vector 65" d="M160.606 351.566L131.954 333.819V318.29L160.606 336.037V351.566Z" fill="#84A6F4"/>
<path id="Vector 66" d="M160.606 377.62L131.954 359.873V344.356L160.606 362.103V377.62Z" fill="#84A6F4"/>
<path id="Vector 67" d="M160.606 404.263L131.954 386.516V370.987L160.606 388.734V404.263Z" fill="#84A6F4"/>
<path id="Vector 68" d="M168.672 244.541L142.832 228.546V223.588L168.672 239.594V244.541Z" fill="#E4E7EF"/>
<path id="Vector 69" d="M168.672 244.541L194.511 228.546V223.588L168.672 239.594V244.541Z" fill="#DADCE5"/>
<path id="Vector 70" d="M168.672 438.625L123.899 410.896V229.001L168.672 256.731V438.625Z" fill="#E4E7EF"/>
<path id="Vector 71" d="M168.672 256.731L123.899 229.001L168.672 201.272L213.444 229.001L168.672 256.731Z" fill="#EDF1F9"/>
<path id="Vector 72" d="M160.617 280.578L131.954 262.831V247.303L160.617 265.05V280.578Z" fill="#6675FF"/>
<path id="Vector 73" d="M213.444 410.907L168.672 438.637V256.731L213.444 229.001V410.907Z" fill="#DADCE5"/>
<path id="Vector 74" d="M187.48 273.923L176.726 280.578V265.05L187.48 258.394V273.923Z" fill="#6675FF"/>
<path id="Vector 75" d="M205.389 262.831L194.635 269.486V253.958L205.389 247.303V262.831Z" fill="#6675FF"/>
<path id="Vector 76" d="M187.48 297.216L176.726 303.871V288.342L187.48 281.687V297.216Z" fill="#6675FF"/>
<path id="Vector 77" d="M205.389 286.124L194.635 292.779V277.251L205.389 270.595V286.124Z" fill="#6675FF"/>
<path id="Vector 78" d="M187.48 320.509L176.726 327.164V311.635L187.48 304.98V320.509Z" fill="#6675FF"/>
<path id="Vector 79" d="M205.389 309.417L194.635 316.072V300.543L205.389 293.888V309.417Z" fill="#6675FF"/>
<path id="Vector 80" d="M187.48 344.911L176.726 351.566V336.037L187.48 329.382V344.911Z" fill="#6675FF"/>
<path id="Vector 81" d="M205.389 333.819L194.635 340.474V324.945L205.389 318.29V333.819Z" fill="#6675FF"/>
<path id="Vector 82" d="M187.48 370.965L176.726 377.62V362.103L187.48 355.448V370.965Z" fill="#6675FF"/>
<path id="Vector 83" d="M205.389 359.874L194.635 366.529V351.011L205.389 344.356V359.874Z" fill="#6675FF"/>
<path id="Vector 84" d="M187.48 397.608L176.726 404.263V388.734L187.48 382.079V397.608Z" fill="#6675FF"/>
<path id="Vector 85" d="M205.389 386.516L194.635 393.171V377.643L205.389 370.987V386.516Z" fill="#6675FF"/>
<path id="Vector 86" d="M160.617 303.871L131.954 286.124V270.595L160.617 288.342V303.871Z" fill="#6675FF"/>
<path id="Vector 87" d="M160.617 327.164L131.954 309.417V293.888L160.617 311.635V327.164Z" fill="#6675FF"/>
<path id="Vector 88" d="M160.617 351.566L131.954 333.819V318.29L160.617 336.037V351.566Z" fill="#6675FF"/>
<path id="Vector 89" d="M160.617 377.62L131.954 359.873V344.356L160.617 362.103V377.62Z" fill="#6675FF"/>
<path id="Vector 90" d="M160.617 404.263L131.954 386.516V370.987L160.617 388.734V404.263Z" fill="#6675FF"/>
<path id="Vector 91" d="M168.672 244.541L142.832 228.546V223.588L168.672 239.594V244.541Z" fill="#E4E7EF"/>
<path id="Vector 92" d="M168.672 244.541L194.511 228.546V223.588L168.672 239.594V244.541Z" fill="#DADCE5"/>
<path id="Vector 93" d="M370.012 411.772L325.24 384.043V202.137L370.012 229.866V411.772Z" fill="#E4E7EF"/>
<path id="Vector 94" d="M370.012 229.866L325.23 202.137L370.002 174.407L414.784 202.137L370.012 229.866Z" fill="#EDF1F9"/>
<path id="Vector 95" d="M361.947 253.714L333.295 235.967V220.438L361.947 238.185V253.714Z" fill="#6675FF"/>
<path id="Vector 96" d="M414.784 384.054L370.002 411.783V229.877L414.784 202.148V384.054Z" fill="#DADCE5"/>
<path id="Vector 97" d="M388.81 247.07L378.067 253.725V238.196L388.81 231.541V247.07Z" fill="#6675FF"/>
<path id="Vector 98" d="M406.719 235.978L395.976 242.633V227.104L406.719 220.449V235.978Z" fill="#6675FF"/>
<path id="Vector 99" d="M388.81 270.363L378.067 277.018V261.489L388.81 254.834V270.363Z" fill="#6675FF"/>
<path id="Vector 100" d="M406.719 259.271L395.976 265.926V250.397L406.719 243.742V259.271Z" fill="#6675FF"/>
<path id="Vector 101" d="M388.81 293.655L378.067 300.31V284.782L388.81 278.127V293.655Z" fill="#6675FF"/>
<path id="Vector 102" d="M406.719 282.564L395.976 289.219V273.69L406.719 267.035V282.564Z" fill="#6675FF"/>
<path id="Vector 103" d="M388.81 318.057L378.067 324.712V309.184L388.81 302.529V318.057Z" fill="#6675FF"/>
<path id="Vector 104" d="M406.719 306.966L395.976 313.621V298.092L406.719 291.437V306.966Z" fill="#6675FF"/>
<path id="Vector 105" d="M388.81 344.112L378.067 350.767V335.239L388.81 328.583V344.112Z" fill="#6675FF"/>
<path id="Vector 106" d="M406.719 333.02L395.976 339.675V324.147L406.719 317.492V333.02Z" fill="#6675FF"/>
<path id="Vector 107" d="M388.81 370.755L378.067 377.41V361.881L388.81 355.226V370.755Z" fill="#6675FF"/>
<path id="Vector 108" d="M406.719 359.663L395.976 366.318V350.789L406.719 344.123V359.663Z" fill="#6675FF"/>
<path id="Vector 109" d="M361.947 277.007L333.295 259.26V243.731L361.947 261.478V277.007Z" fill="#6675FF"/>
<path id="Vector 110" d="M361.947 300.299L333.295 282.552V267.024L361.947 284.771V300.299Z" fill="#6675FF"/>
<path id="Vector 111" d="M361.947 324.701L333.295 306.954V291.426L361.947 309.173V324.701Z" fill="#6675FF"/>
<path id="Vector 112" d="M361.947 350.767L333.295 333.02V317.492L361.947 335.239V350.767Z" fill="#6675FF"/>
<path id="Vector 113" d="M361.947 377.41L333.295 359.663V344.123L361.947 361.881V377.41Z" fill="#6675FF"/>
<path id="Vector 114" d="M370.012 217.687L344.172 201.682V196.735L370.012 212.729V217.687Z" fill="#E4E7EF"/>
<path id="Vector 115" d="M370.012 217.687L395.852 201.682V196.735L370.012 212.729V217.687Z" fill="#DADCE5"/>
<path id="Vector 116" d="M110.467 474.13L65.6951 446.401V331.046L110.467 358.775V474.13Z" fill="#E4E7EF"/>
<path id="Vector 117" d="M110.467 358.775L65.6951 331.046L110.457 303.316L155.24 331.046L110.467 358.775Z" fill="#EDF1F9"/>
<path id="Vector 118" d="M102.402 382.623L73.75 364.876V349.347L102.402 367.094V382.623Z" fill="#6675FF"/>
<path id="Vector 119" d="M155.24 446.401L110.467 474.13V358.787L155.24 331.057V446.401Z" fill="#DADCE5"/>
<path id="Vector 120" d="M129.266 375.979L118.522 382.634V367.105L129.266 360.45V375.979Z" fill="#6675FF"/>
<path id="Vector 121" d="M147.175 364.887L136.431 371.542V356.014L147.175 349.358V364.887Z" fill="#6675FF"/>
<path id="Vector 122" d="M129.266 399.272L118.522 405.927V390.398L129.266 383.743V399.272Z" fill="#6675FF"/>
<path id="Vector 123" d="M147.175 388.18L136.431 394.835V379.306L147.175 372.651V388.18Z" fill="#6675FF"/>
<path id="Vector 124" d="M129.266 422.564L118.522 429.22V413.691L129.266 407.036V422.564Z" fill="#6675FF"/>
<path id="Vector 125" d="M147.175 411.473L136.431 418.128V402.599L147.175 395.944V411.473Z" fill="#6675FF"/>
<path id="Vector 126" d="M129.266 446.955L118.522 453.61V438.082L129.266 431.427V446.955Z" fill="#6675FF"/>
<path id="Vector 127" d="M147.175 435.864L136.431 442.519V426.99L147.175 420.335V435.864Z" fill="#6675FF"/>
<path id="Vector 128" d="M102.402 405.916L73.75 388.169V372.64L102.402 390.387V405.916Z" fill="#6675FF"/>
<path id="Vector 129" d="M102.402 429.208L73.75 411.462V395.933L102.402 413.68V429.208Z" fill="#6675FF"/>
<path id="Vector 130" d="M102.402 453.61L73.75 435.864V420.335L102.402 438.082V453.61Z" fill="#6675FF"/>
<path id="Vector 131" d="M110.467 346.586L84.6277 330.591V325.633L110.467 341.639V346.586Z" fill="#E4E7EF"/>
<path id="Vector 132" d="M110.467 346.586L136.307 330.591V325.633L110.467 341.639V346.586Z" fill="#DADCE5"/>
<path id="Vector 133" d="M305.997 449.961L261.225 422.232V306.877L305.997 334.606V449.961Z" fill="#E4E7EF"/>
<path id="Vector 134" d="M305.997 334.606L261.215 306.877L305.987 279.147L350.769 306.877L305.997 334.606Z" fill="#EDF1F9"/>
<path id="Vector 135" d="M297.932 358.454L269.28 340.707V325.178L297.932 342.925V358.454Z" fill="#6675FF"/>
<path id="Vector 136" d="M350.769 422.232L305.997 449.961V334.617L350.769 306.888V422.232Z" fill="#DADCE5"/>
<path id="Vector 137" d="M324.795 351.81L314.052 358.465V342.936L324.795 336.281V351.81Z" fill="#6675FF"/>
<path id="Vector 138" d="M342.704 340.718L331.961 347.373V331.844L342.704 325.189V340.718Z" fill="#6675FF"/>
<path id="Vector 139" d="M324.795 375.103L314.052 381.758V366.229L324.795 359.574V375.103Z" fill="#6675FF"/>
<path id="Vector 140" d="M342.704 364.011L331.961 370.666V355.137L342.704 348.482V364.011Z" fill="#6675FF"/>
<path id="Vector 141" d="M324.795 398.384L314.052 405.039V389.511L324.795 382.856V398.384Z" fill="#6675FF"/>
<path id="Vector 142" d="M342.704 387.292L331.961 393.948V378.419L342.704 371.764V387.292Z" fill="#6675FF"/>
<path id="Vector 143" d="M324.795 422.786L314.052 429.441V413.913L324.795 407.258V422.786Z" fill="#6675FF"/>
<path id="Vector 144" d="M342.704 411.695L331.961 418.35V402.821L342.704 396.166V411.695Z" fill="#6675FF"/>
<path id="Vector 145" d="M297.932 381.747L269.28 364V348.471L297.932 366.218V381.747Z" fill="#6675FF"/>
<path id="Vector 146" d="M297.932 405.039L269.28 387.292V371.764L297.932 389.511V405.039Z" fill="#6675FF"/>
<path id="Vector 147" d="M297.932 429.441L269.28 411.695V396.166L297.932 413.913V429.441Z" fill="#6675FF"/>
<path id="Vector 148" d="M305.997 322.416L280.158 306.422V301.464L305.997 317.469V322.416Z" fill="#E4E7EF"/>
<path id="Vector 149" d="M305.997 322.416L331.837 306.422V301.464L305.997 317.469V322.416Z" fill="#DADCE5"/>
<path id="Vector 150" d="M255.724 440.411H250.678V459.445C250.699 459.683 250.779 459.913 250.91 460.107C251.041 460.302 251.218 460.456 251.423 460.554C251.975 460.855 252.586 461.012 253.206 461.012C253.826 461.012 254.437 460.855 254.99 460.554C255.192 460.454 255.366 460.299 255.495 460.105C255.624 459.91 255.702 459.682 255.724 459.445V440.411Z" fill="#443D31"/>
<path id="Vector 151" d="M253.325 440.7C260.628 440.7 266.55 434.348 266.55 426.513C266.55 418.678 260.628 412.327 253.325 412.327C246.021 412.327 240.1 418.678 240.1 426.513C240.1 434.348 246.021 440.7 253.325 440.7Z" fill="#C6E800"/>
<path id="Vector 152" d="M225.118 459.4H220.072V478.434C220.09 478.674 220.17 478.903 220.3 479.098C220.432 479.294 220.609 479.448 220.816 479.543C221.368 479.844 221.979 480.001 222.6 480.001C223.219 480.001 223.83 479.844 224.384 479.543C224.586 479.446 224.762 479.29 224.891 479.095C225.02 478.901 225.098 478.672 225.118 478.434V459.4Z" fill="#443D31"/>
<path id="Vector 153" d="M222.719 459.689C230.022 459.689 235.944 453.338 235.944 445.502C235.944 437.667 230.022 431.316 222.719 431.316C215.415 431.316 209.494 437.667 209.494 445.502C209.494 453.338 215.415 459.689 222.719 459.689Z" fill="#C6E800"/>
<path id="Vector 154" d="M192.371 479.71H187.325V498.732C187.345 498.969 187.423 499.198 187.552 499.393C187.682 499.587 187.856 499.742 188.059 499.841C188.613 500.142 189.226 500.299 189.848 500.299C190.469 500.299 191.081 500.142 191.637 499.841C191.839 499.742 192.014 499.587 192.142 499.393C192.272 499.198 192.35 498.969 192.371 498.732V479.71Z" fill="#443D31"/>
<path id="Vector 155" d="M189.972 479.998C197.275 479.998 203.197 473.647 203.197 465.811C203.197 457.976 197.275 451.625 189.972 451.625C182.668 451.625 176.747 457.976 176.747 465.811C176.747 473.647 182.668 479.998 189.972 479.998Z" fill="#C6E800"/>
<path id="Vector 156" opacity="0.1" d="M370.012 204.045C377.887 204.045 384.271 200.091 384.271 195.215C384.271 190.34 377.887 186.386 370.012 186.386C362.137 186.386 355.753 190.34 355.753 195.215C355.753 200.091 362.137 204.045 370.012 204.045Z" fill="black"/>
</g>
<g id="gps">
<path id="Vector 157" d="M376.578 70.4656C369.568 66.1287 363.136 65.4188 358.297 67.7481C357.542 68.1097 356.822 68.548 356.146 69.0569L346.323 75.0132C346.323 75.0132 348.195 76.3885 350.314 77.8859C349.395 80.9988 348.945 84.2488 348.981 87.5136C348.994 90.8711 349.34 94.2175 350.015 97.4963L347.171 97.7292C347.171 98.0398 351.669 123.473 352.186 124.494C352.703 125.514 361.12 136.373 361.337 136.284C361.844 135.486 362.307 134.657 362.722 133.8C366.124 141.93 369.454 149.328 372.028 154.73L363.446 158.967L366.548 170.27L377.643 163.47C377.704 163.444 377.763 163.411 377.819 163.371C381.707 160.176 394.932 148.63 401.839 134.199C403.548 130.31 404.373 126.041 404.248 121.743C404.175 102.887 391.799 79.8936 376.578 70.4656ZM376.578 122.397C368.678 117.506 362.247 105.56 362.247 95.7771C362.247 87.6024 366.734 83.4984 372.804 85.2065L371.604 85.7833C372.411 86.8038 385.626 111.672 386.215 114.367C386.907 116.614 387.956 118.715 389.317 120.578C386.99 124.871 382.203 125.858 376.578 122.397Z" fill="#DB4949"/>
<path id="Vector 158" d="M365.504 77.2537C350.294 67.8257 337.917 75.5012 337.917 94.3462C337.966 99.5995 338.779 104.812 340.326 109.797C347.223 132.768 360.489 160.72 364.346 168.717C364.606 169.284 365.007 169.763 365.504 170.103C365.67 170.238 365.871 170.315 366.08 170.325C366.289 170.335 366.494 170.277 366.672 170.159C370.56 166.964 383.795 155.418 390.692 140.987C392.398 137.105 393.223 132.844 393.101 128.553C393.101 109.697 380.724 86.6818 365.504 77.2537ZM365.504 129.197C357.604 124.294 351.173 112.348 351.173 102.576C351.173 92.8044 357.604 88.8114 365.504 93.7029C373.404 98.5944 379.845 110.54 379.845 120.323C379.845 130.106 373.414 134.099 365.504 129.197Z" fill="#FF6161"/>
</g>
</g>
</svg>
